:SAMPLES-PER-SECOND 30
:FULLY-SPECIFIED
:DEGREES
382
root  -4.56014 40.8417 -0.00618112 -10.162 -84.7496 9.11977
RightUpLeg  9.19873 -3.03817 -2.85601
RightLeg  -3.05168 -23.864 1.21247
RightFoot  -2.61182 -0.370123 4.61396
RightToes  -3.10096e-008 1.75238e-005 3.56266e-009
Spine  -13.002 -0.200782 -0.891647
Spine1  17.1845 0.430756 -1.51685
HEad  -15.9974 7.44252 -2.04209
LeftShoulder1  2.42665 -5.54881 -20.3927
LeftArm  -46.8288 1.29619 -13.9287
LeftForeArm  -36.5151 -12.8126 -1.51936
LeftHand  -0.0302467 0.135389 0.650139
RightShoulder  1.95822 4.18323 19.0116
RightArm  -71.7012 4.03753 12.1645
RightForeArm  -66.8203 25.7403 7.69316
RightHand  -0.341604 0.838034 -6.50106
LeftUpLeg  5.68963 1.43268 1.76448
LeftLeg  -1.47064 6.39603 -0.890237
LeftFoot  -2.22873 0.194761 -2.27673
LeftToes  4.7633e-008 1.48299e-008 1.30754e-009
383
root  -4.64745 40.829 0.0280544 -12.3897 -85.5256 10.9234
RightUpLeg  9.64832 -3.15104 -3.04426
RightLeg  -2.88536 -22.8992 1.06707
RightFoot  -2.80579 -0.37202 4.68128
RightToes  -3.10096e-008 1.75238e-005 3.56266e-009
Spine  -14.7642 -0.347733 -0.820927
Spine1  20.5114 0.348158 -1.61669
HEad  -17.1068 8.40694 -2.08514
LeftShoulder1  2.51457 -5.48507 -21.6323
LeftArm  -44.9541 5.91929 -17.3422
LeftForeArm  -32.5314 -13.3996 -2.84394
LeftHand  -0.00715823 0.14586 0.122494
RightShoulder  2.40408 5.20683 21.317
RightArm  -67.6788 1.53324 13.7891
RightForeArm  -73.28 25.7665 7.66989
RightHand  -0.334502 -0.0776199 -7.31988
LeftUpLeg  6.45304 1.64372 1.7708
LeftLeg  -1.55897 6.9307 -1.04312
LeftFoot  -2.42124 0.182713 -2.15075
LeftToes  4.7633e-008 1.48299e-008 1.30754e-009
384
root  -4.71235 40.8176 0.0606793 -14.3074 -86.3454 12.3949
RightUpLeg  10.0821 -3.21798 -3.13387
RightLeg  -2.74742 -21.9906 0.945187
RightFoot  -2.93383 -0.376383 4.77524
RightToes  -3.10096e-008 1.75238e-005 3.56266e-009
Spine  -15.2904 -0.0819712 -0.612461
Spine1  21.7205 0.546647 -1.44081
HEad  -17.3825 8.28019 -2.32556
LeftShoulder1  2.69879 -5.71108 -23.0112
LeftArm  -44.5487 8.17856 -20.4509
LeftForeArm  -32.5357 -13.9821 -3.12809
LeftHand  0.0715032 0.120243 -1.59063
RightShoulder  2.72416 5.86182 22.9111
RightArm  -67.2381 0.471584 14.9087
RightForeArm  -74.5562 24.8231 7.13899
RightHand  -0.356179 -0.00996355 -7.71158
LeftUpLeg  7.11887 1.74272 1.76855
LeftLeg  -1.49296 7.62327 -1.01999
LeftFoot  -2.64906 0.1788 -2.11843
LeftToes  4.7633e-008 1.48299e-008 1.30754e-009
385
root  -4.77933 40.81 0.0936324 -16.5612 -86.8771 14.341
RightUpLeg  10.4147 -3.31683 -3.27938
RightLeg  -2.64069 -21.2764 0.85846
RightFoot  -2.98179 -0.383429 4.89895
RightToes  -3.10096e-008 1.75238e-005 3.56266e-009
Spine  -15.5803 0.260892 -0.202454
Spine1  21.9232 0.877251 -1.50024
HEad  -16.7778 8.07733 -2.39535
LeftShoulder1  2.92517 -6.22932 -23.8397
LeftArm  -45.5505 9.33738 -22.7648
LeftForeArm  -33.3058 -15.5967 -3.29017
LeftHand  0.0299005 0.341486 -0.733566
RightShoulder  2.80946 5.89395 23.7522
RightArm  -68.1484 -0.032886 15.8063
RightForeArm  -74.3353 24.7063 6.99356
RightHand  -0.313117 -0.484627 -7.36359
LeftUpLeg  7.70013 1.75004 1.68125
LeftLeg  -1.627 8.18538 -1.01767
LeftFoot  -2.81131 0.172997 -2.04453
LeftToes  4.7633e-008 1.48299e-008 1.30754e-009
386
root  -4.8337 40.8048 0.128038 -17.0894 -87.0496 14.8491
RightUpLeg  10.4767 -3.39264 -3.36912
RightLeg  -2.56945 -20.966 0.830642
RightFoot  -3.00218 -0.388566 4.98082
RightToes  -3.10096e-008 1.75238e-005 3.56266e-009
Spine  -15.8591 0.243972 0.265729
Spine1  21.6833 0.907465 -1.82004
HEad  -15.6558 8.44149 -2.50751
LeftShoulder1  2.81507 -5.81372 -23.9964
LeftArm  -47.0777 9.2912 -24.0986
LeftForeArm  -32.9754 -18.1636 -4.13785
LeftHand  0.0595207 0.00350357 -1.30606
RightShoulder  2.86866 5.99578 24.0714
RightArm  -68.6778 0.0367614 15.984
RightForeArm  -72.9531 25.7821 7.71331
RightHand  -0.387571 0.247881 -8.00046
LeftUpLeg  7.93311 1.68555 1.57447
LeftLeg  -1.83647 8.55206 -1.00771
LeftFoot  -2.88139 0.15799 -1.81838
LeftToes  4.7633e-008 1.48299e-008 1.30754e-009
387
root  -4.89059 40.8184 0.151946 -19.7932 -87.03 17.765
RightUpLeg  10.4145 -3.50015 -3.60873
RightLeg  -2.73102 -20.7885 0.907571
RightFoot  -2.90918 -0.393403 5.04554
RightToes  -3.10096e-008 1.75238e-005 3.56266e-009
Spine  -15.9054 0.271616 0.203526
Spine1  20.3916 0.841954 -1.60977
HEad  -13.1764 8.00165 -2.6909
LeftShoulder1  2.91855 -6.09653 -24.199
LeftArm  -48.429 9.75747 -24.1788
LeftForeArm  -32.5508 -22.2701 -5.87541
LeftHand  0.0327684 -0.130266 -0.675796
RightShoulder  2.70863 5.65811 23.4033
RightArm  -68.293 0.403493 16.0202
RightForeArm  -71.3177 27.592 8.17111
RightHand  -0.280341 -0.361012 -6.49015
LeftUpLeg  7.81779 1.55405 1.36088
LeftLeg  -1.90149 8.72034 -1.03529
LeftFoot  -2.70566 0.1664 -1.95015
LeftToes  4.7633e-008 1.48299e-008 1.30754e-009
388
root  -4.94122 40.8245 0.178001 -20.7823 -86.9324 19.0988
RightUpLeg  10.1779 -3.52897 -3.73351
RightLeg  -2.831 -20.8332 0.936302
RightFoot  -2.84373 -0.39792 5.09256
RightToes  -3.10096e-008 1.75238e-005 3.56266e-009
Spine  -16.0383 0.193766 0.248509
Spine1  19.1124 0.692958 -1.50401
HEad  -11.0384 7.90553 -2.73136
LeftShoulder1  2.8592 -6.01929 -23.794
LeftArm  -48.9357 10.1516 -24.7398
LeftForeArm  -33.3578 -27.9234 -7.57022
LeftHand  0.0551383 -0.316108 -1.11161
RightShoulder  2.60192 5.5058 22.6829
RightArm  -64.5152 0.103703 15.5267
RightForeArm  -72.1653 31.6667 9.24342
RightHand  -0.317258 0.464597 -6.39116
LeftUpLeg  7.68357 1.36434 1.16041
LeftLeg  -2.26037 8.87707 -1.05056
LeftFoot  -2.56834 0.168569 -1.98175
LeftToes  4.7633e-008 1.48299e-008 1.30754e-009
389
root  -4.96965 40.8353 0.192242 -21.3559 -86.806 19.957
RightUpLeg  9.97193 -3.51923 -3.83119
RightLeg  -2.9176 -20.8574 0.942691
RightFoot  -2.75423 -0.415623 5.33143
RightToes  -3.10096e-008 1.75238e-005 3.56266e-009
Spine  -15.8331 0.0836924 0.1179
Spine1  17.6466 0.51485 -1.3396
HEad  -9.35623 7.57427 -2.95505
LeftShoulder1  2.6506 -5.60788 -22.8171
LeftArm  -48.8153 10.2779 -25.705
LeftForeArm  -34.4227 -34.1219 -9.26236
LeftHand  0.0090124 -0.61911 -0.0902697
RightShoulder  2.57646 5.56 22.1939
RightArm  -61.7056 -0.375094 14.6914
RightForeArm  -71.3694 36.3126 10.6251
RightHand  -0.252784 0.656309 -4.86226
LeftUpLeg  7.46007 1.27441 1.04089
LeftLeg  -2.37578 8.89518 -1.09263
LeftFoot  -2.39936 0.168162 -1.97315
LeftToes  4.7633e-008 1.48299e-008 1.30754e-009
390
root  -4.99418 40.8292 0.235662 -22.5378 -86.8903 21.3929
RightUpLeg  9.53928 -3.63256 -4.00273
RightLeg  -2.50334 -20.5133 0.799217
RightFoot  -2.79537 -0.425197 5.43071
RightToes  -3.10096e-008 1.75238e-005 3.56266e-009
Spine  -15.8664 0.111072 0.578097
Spine1  16.8769 0.564383 -1.57814
HEad  -8.36672 7.30125 -3.47261
LeftShoulder1  2.58862 -5.49078 -22.4862
LeftArm  -49.4297 10.2413 -26.2398
LeftForeArm  -33.8399 -39.9624 -11.1254
LeftHand  -0.0101307 -1.12673 0.270273
RightShoulder  2.45934 5.28788 21.7177
RightArm  -59.2214 -0.635445 14.4921
RightForeArm  -69.1357 41.6568 12.4708
RightHand  -0.1431 0.186179 -3.05704
LeftUpLeg  7.6223 1.04005 0.822917
LeftLeg  -3.14029 9.28591 -1.15967
LeftFoot  -2.35341 0.160676 -1.85734
LeftToes  4.7633e-008 1.48299e-008 1.30754e-009
391
root  -5.0226 40.8303 0.286712 -25.9685 -87.4283 24.7999
RightUpLeg  9.46829 -3.63287 -4.06762
RightLeg  -2.39089 -19.917 0.686631
RightFoot  -2.65365 -0.437995 5.52202
RightToes  -3.10096e-008 1.75238e-005 3.56266e-009
Spine  -15.7177 0.362998 1.37057
Spine1  16.3573 0.812014 -1.96179
HEad  -8.38753 7.51846 -3.98135
LeftShoulder1  2.5539 -5.37913 -22.4513
LeftArm  -50.0741 10.0975 -26.97
LeftForeArm  -31.8059 -44.9865 -12.9828
LeftHand  -0.180775 -2.85951 2.69089
RightShoulder  2.42715 5.29037 21.3162
RightArm  -56.9375 -1.45226 14.4465
RightForeArm  -65.2348 46.8353 14.6109
RightHand  -0.154576 1.5563 -2.70665
LeftUpLeg  7.88339 0.899439 0.672869
LeftLeg  -3.4003 10.0821 -1.1168
LeftFoot  -2.38121 0.160102 -1.85487
LeftToes  4.7633e-008 1.48299e-008 1.30754e-009
